<?xml version="1.0" standalone="no"?>
<!DOCTYPE svg PUBLIC "-//W3C//DTD SVG 20010904//EN"
 "http://www.w3.org/TR/2001/REC-SVG-20010904/DTD/svg10.dtd">
<svg version="1.0" xmlns="http://www.w3.org/2000/svg"
 width="14" height="14" viewBox="0 0 512.000000 512.000000"
 preserveAspectRatio="xMidYMid meet">

<g transform="translate(0.000000,512.000000) scale(0.100000,-0.100000)"
fill="#0074BB" stroke="none">
<path d="M953 3478 c-718 -721 -751 -755 -768 -808 -23 -70 -23 -150 -1 -220
18 -53 59 -96 1105 -1143 1208 -1210 1131 -1141 1270 -1141 141 1 57 -75 1257
1126 759 758 1088 1094 1103 1124 44 86 44 200 2 287 -14 29 -256 277 -764
785 l-743 743 -75 -3 -74 -3 767 -772 c422 -424 774 -786 784 -804 34 -67 18
-165 -39 -226 l-20 -23 -2197 0 -2197 0 -20 23 c-57 61 -73 159 -38 226 9 18
317 336 683 705 366 369 711 717 766 774 l101 102 -75 0 -75 0 -752 -752z"/>
</g>
</svg>
