<svg width="42" height="41" viewBox="0 0 42 41" fill="none" xmlns="http://www.w3.org/2000/svg">
<path d="M14.6361 31.5014C14.6377 30.927 14.4813 30.3632 14.1839 29.8718C13.8866 29.3804 13.4598 28.9802 12.9503 28.7151C12.4407 28.4499 11.8681 28.3301 11.295 28.3686C10.7219 28.4072 10.1704 28.6026 9.70096 28.9336C9.23151 29.2646 8.86214 29.7183 8.63329 30.2451C8.40443 30.7719 8.32491 31.3516 8.40342 31.9206C8.48193 32.4896 8.71546 33.026 9.07843 33.4712C9.4414 33.9164 9.91984 34.2531 10.4614 34.4446V38.8176H8.37402V40.9049H14.6361V38.8176H12.5487V34.4446C13.1578 34.2292 13.6853 33.8308 14.059 33.3039C14.4327 32.777 14.6343 32.1474 14.6361 31.5014V31.5014ZM11.5051 30.4577C11.7115 30.4577 11.9133 30.5189 12.0849 30.6336C12.2565 30.7483 12.3903 30.9113 12.4693 31.102C12.5483 31.2927 12.5689 31.5026 12.5287 31.705C12.4884 31.9075 12.389 32.0934 12.243 32.2394C12.0971 32.3853 11.9111 32.4847 11.7087 32.525C11.5062 32.5653 11.2964 32.5446 11.1057 32.4656C10.9149 32.3866 10.7519 32.2529 10.6373 32.0812C10.5226 31.9096 10.4614 31.7078 10.4614 31.5014C10.4614 31.2246 10.5713 30.9591 10.7671 30.7634C10.9628 30.5677 11.2283 30.4577 11.5051 30.4577V30.4577Z" fill="#A9A9A9"/>
<path d="M16.6611 36.6779C17.3509 35.9966 17.8967 35.1836 18.2661 34.2871C18.6354 33.3906 18.8208 32.4291 18.8111 31.4595C18.8111 30.5001 18.6221 29.5501 18.2549 28.6638C17.8878 27.7774 17.3497 26.972 16.6713 26.2936C15.9929 25.6152 15.1875 25.0771 14.3011 24.7099C13.4147 24.3428 12.4647 24.1538 11.5053 24.1538C10.5459 24.1538 9.59591 24.3428 8.70953 24.7099C7.82316 25.0771 7.01778 25.6152 6.33938 26.2936C5.66098 26.972 5.12284 27.7774 4.7557 28.6638C4.38855 29.5501 4.19958 30.5001 4.19958 31.4595C4.18988 32.4291 4.37521 33.3906 4.74455 34.2871C5.1139 35.1836 5.65971 35.9966 6.34956 36.6779L7.82114 35.1959C7.33216 34.7134 6.94455 34.1379 6.68109 33.5035C6.41762 32.869 6.28361 32.1883 6.28693 31.5013C6.28693 30.1173 6.83673 28.79 7.81536 27.8113C8.794 26.8327 10.1213 26.2829 11.5053 26.2829C12.8893 26.2829 14.2166 26.8327 15.1953 27.8113C16.1739 28.79 16.7237 30.1173 16.7237 31.5013C16.727 32.1858 16.594 32.8641 16.3323 33.4966C16.0707 34.1292 15.6858 34.7033 15.1999 35.1855L16.6611 36.6779Z" fill="#A9A9A9"/>
<path d="M11.5052 20C9.22975 19.9951 7.00414 20.6665 5.111 21.929C3.21785 23.1914 1.74256 24.988 0.872463 27.0905C0.00236403 29.1931 -0.223298 31.5068 0.22413 33.7379C0.671558 35.9689 1.77189 38.0167 3.38542 39.6212L4.85701 38.1391C3.54366 36.8254 2.64936 35.1517 2.28718 33.3297C1.92499 31.5077 2.11118 29.6192 2.82222 27.903C3.53325 26.1868 4.73719 24.72 6.28181 23.688C7.82643 22.656 9.64236 22.1052 11.5 22.1052C13.3577 22.1052 15.1736 22.656 16.7182 23.688C18.2628 24.72 19.4668 26.1868 20.1778 27.903C20.8888 29.6192 21.075 31.5077 20.7128 33.3297C20.3507 35.1517 19.4564 36.8254 18.143 38.1391L19.6146 39.6212C21.2275 38.0173 22.3276 35.9705 22.7754 33.7404C23.2231 31.5103 22.9983 29.1975 22.1295 27.0954C21.2607 24.9933 19.7871 23.1966 17.8955 21.9333C16.004 20.6701 13.7798 19.9972 11.5052 20V20Z" fill="#A9A9A9"/>
<path d="M14.6361 11.5014C14.6377 10.927 14.4813 10.3632 14.1839 9.8718C13.8866 9.38036 13.4598 8.98018 12.9503 8.71506C12.4407 8.44993 11.8681 8.33009 11.295 8.36863C10.7219 8.40717 10.1704 8.60262 9.70096 8.93359C9.23151 9.26456 8.86214 9.71828 8.63329 10.2451C8.40443 10.7719 8.32491 11.3516 8.40342 11.9206C8.48193 12.4896 8.71546 13.026 9.07843 13.4712C9.4414 13.9164 9.91984 14.2531 10.4614 14.4446V18.8176H8.37402V20.9049H14.6361V18.8176H12.5487V14.4446C13.1578 14.2292 13.6853 13.8308 14.059 13.3039C14.4327 12.777 14.6343 12.1474 14.6361 11.5014V11.5014ZM11.5051 10.4577C11.7115 10.4577 11.9133 10.5189 12.0849 10.6336C12.2565 10.7483 12.3903 10.9113 12.4693 11.102C12.5483 11.2927 12.5689 11.5026 12.5287 11.705C12.4884 11.9075 12.389 12.0934 12.243 12.2394C12.0971 12.3853 11.9111 12.4847 11.7087 12.525C11.5062 12.5653 11.2964 12.5446 11.1057 12.4656C10.9149 12.3866 10.7519 12.2529 10.6373 12.0812C10.5226 11.9096 10.4614 11.7078 10.4614 11.5014C10.4614 11.2246 10.5713 10.9591 10.7671 10.7634C10.9628 10.5677 11.2283 10.4577 11.5051 10.4577V10.4577Z" fill="#A9A9A9"/>
<path d="M16.6611 16.6779C17.3509 15.9966 17.8967 15.1836 18.2661 14.2871C18.6354 13.3906 18.8208 12.4291 18.8111 11.4595C18.8111 10.5001 18.6221 9.55014 18.2549 8.66376C17.8878 7.77739 17.3497 6.97201 16.6713 6.29361C15.9929 5.61521 15.1875 5.07707 14.3011 4.70992C13.4147 4.34278 12.4647 4.15381 11.5053 4.15381C10.5459 4.15381 9.59591 4.34278 8.70953 4.70992C7.82316 5.07707 7.01778 5.61521 6.33938 6.29361C5.66098 6.97201 5.12284 7.77739 4.7557 8.66376C4.38855 9.55014 4.19958 10.5001 4.19958 11.4595C4.18988 12.4291 4.37521 13.3906 4.74455 14.2871C5.1139 15.1836 5.65971 15.9966 6.34956 16.6779L7.82114 15.1959C7.33216 14.7134 6.94455 14.1379 6.68109 13.5035C6.41762 12.869 6.28361 12.1883 6.28693 11.5013C6.28693 10.1173 6.83673 8.78998 7.81536 7.81134C8.794 6.8327 10.1213 6.28291 11.5053 6.28291C12.8893 6.28291 14.2166 6.8327 15.1953 7.81134C16.1739 8.78998 16.7237 10.1173 16.7237 11.5013C16.727 12.1858 16.594 12.8641 16.3323 13.4966C16.0707 14.1292 15.6858 14.7033 15.1999 15.1855L16.6611 16.6779Z" fill="#A9A9A9"/>
<path d="M11.5052 2.67442e-05C9.22975 -0.00488374 7.00414 0.666515 5.111 1.92897C3.21785 3.19143 1.74256 4.98799 0.872463 7.09055C0.00236403 9.1931 -0.223298 11.5068 0.22413 13.7379C0.671558 15.9689 1.77189 18.0167 3.38542 19.6212L4.85701 18.1391C3.54366 16.8254 2.64936 15.1517 2.28718 13.3297C1.92499 11.5077 2.11118 9.61919 2.82222 7.90301C3.53325 6.18682 4.73719 4.72 6.28181 3.68801C7.82643 2.65602 9.64236 2.1052 11.5 2.1052C13.3577 2.1052 15.1736 2.65602 16.7182 3.68801C18.2628 4.72 19.4668 6.18682 20.1778 7.90301C20.8888 9.61919 21.075 11.5077 20.7128 13.3297C20.3507 15.1517 19.4564 16.8254 18.143 18.1391L19.6146 19.6212C21.2275 18.0173 22.3276 15.9705 22.7754 13.7404C23.2231 11.5103 22.9983 9.19751 22.1295 7.09538C21.2607 4.99326 19.7871 3.19659 17.8955 1.93334C16.004 0.670086 13.7798 -0.00281046 11.5052 2.67442e-05V2.67442e-05Z" fill="#A9A9A9"/>
<path d="M33.6361 22.5014C33.6377 21.927 33.4813 21.3632 33.1839 20.8718C32.8866 20.3804 32.4598 19.9802 31.9503 19.7151C31.4407 19.4499 30.8681 19.3301 30.295 19.3686C29.7219 19.4072 29.1704 19.6026 28.701 19.9336C28.2315 20.2646 27.8621 20.7183 27.6333 21.2451C27.4044 21.7719 27.3249 22.3516 27.4034 22.9206C27.4819 23.4896 27.7155 24.026 28.0784 24.4712C28.4414 24.9164 28.9198 25.2531 29.4614 25.4446V29.8176H27.374V31.9049H33.6361V29.8176H31.5487V25.4446C32.1578 25.2292 32.6853 24.8308 33.059 24.3039C33.4327 23.777 33.6343 23.1474 33.6361 22.5014V22.5014ZM30.5051 21.4577C30.7115 21.4577 30.9133 21.5189 31.0849 21.6336C31.2565 21.7483 31.3903 21.9113 31.4693 22.102C31.5483 22.2927 31.5689 22.5026 31.5287 22.705C31.4884 22.9075 31.389 23.0934 31.243 23.2394C31.0971 23.3853 30.9111 23.4847 30.7087 23.525C30.5062 23.5653 30.2964 23.5446 30.1057 23.4656C29.9149 23.3866 29.7519 23.2529 29.6373 23.0812C29.5226 22.9096 29.4614 22.7078 29.4614 22.5014C29.4614 22.2246 29.5713 21.9591 29.7671 21.7634C29.9628 21.5677 30.2283 21.4577 30.5051 21.4577V21.4577Z" fill="#A9A9A9"/>
<path d="M35.6611 27.6779C36.3509 26.9966 36.8967 26.1836 37.2661 25.2871C37.6354 24.3906 37.8208 23.4291 37.8111 22.4595C37.8111 21.5001 37.6221 20.5501 37.2549 19.6638C36.8878 18.7774 36.3497 17.972 35.6713 17.2936C34.9929 16.6152 34.1875 16.0771 33.3011 15.7099C32.4147 15.3428 31.4647 15.1538 30.5053 15.1538C29.5459 15.1538 28.5959 15.3428 27.7095 15.7099C26.8232 16.0771 26.0178 16.6152 25.3394 17.2936C24.661 17.972 24.1228 18.7774 23.7557 19.6638C23.3885 20.5501 23.1996 21.5001 23.1996 22.4595C23.1899 23.4291 23.3752 24.3906 23.7446 25.2871C24.1139 26.1836 24.6597 26.9966 25.3496 27.6779L26.8211 26.1959C26.3322 25.7134 25.9446 25.1379 25.6811 24.5035C25.4176 23.869 25.2836 23.1883 25.2869 22.5013C25.2869 21.1173 25.8367 19.79 26.8154 18.8113C27.794 17.8327 29.1213 17.2829 30.5053 17.2829C31.8893 17.2829 33.2166 17.8327 34.1953 18.8113C35.1739 19.79 35.7237 21.1173 35.7237 22.5013C35.727 23.1858 35.594 23.8641 35.3323 24.4966C35.0707 25.1292 34.6858 25.7033 34.1999 26.1855L35.6611 27.6779Z" fill="#A9A9A9"/>
<path d="M30.5052 11C28.2298 10.9951 26.0041 11.6665 24.111 12.929C22.2178 14.1914 20.7426 15.988 19.8725 18.0905C19.0024 20.1931 18.7767 22.5068 19.2241 24.7379C19.6716 26.9689 20.7719 29.0167 22.3854 30.6212L23.857 29.1391C22.5437 27.8254 21.6494 26.1517 21.2872 24.3297C20.925 22.5077 21.1112 20.6192 21.8222 18.903C22.5332 17.1868 23.7372 15.72 25.2818 14.688C26.8264 13.656 28.6424 13.1052 30.5 13.1052C32.3577 13.1052 34.1736 13.656 35.7182 14.688C37.2628 15.72 38.4668 17.1868 39.1778 18.903C39.8888 20.6192 40.075 22.5077 39.7128 24.3297C39.3507 26.1517 38.4564 27.8254 37.143 29.1391L38.6146 30.6212C40.2275 29.0173 41.3276 26.9705 41.7754 24.7404C42.2231 22.5103 41.9983 20.1975 41.1295 18.0954C40.2607 15.9933 38.7871 14.1966 36.8955 12.9333C35.004 11.6701 32.7798 10.9972 30.5052 11V11Z" fill="#A9A9A9"/>
</svg>
