<svg width="35" height="30" viewBox="0 0 35 30" fill="none" xmlns="http://www.w3.org/2000/svg">
<path d="M32.8125 4.61538H26.25V2.30769C26.25 1.03434 25.2695 0 24.0625 0H10.9375C9.73047 0 8.75 1.03434 8.75 2.30769V4.61538H2.1875C0.980469 4.61538 0 5.64973 0 6.92308V27.6923C0 28.9657 0.980469 30 2.1875 30H32.8125C34.0195 30 35 28.9657 35 27.6923V6.92308C35 5.64973 34.0195 4.61538 32.8125 4.61538ZM10.9375 2.30769H24.0625V4.61538H10.9375V2.30769ZM32.8125 27.6923H2.1875V18.4615H14.2188V19.6154C14.2188 20.8887 15.1992 21.9231 16.4062 21.9231H18.5938C19.8008 21.9231 20.7812 20.8887 20.7812 19.6154V18.4615H32.8125V27.6923ZM16.4062 19.6154V15H18.5938V19.6154H16.4062ZM20.7812 16.1538V15C20.7812 13.7266 19.8008 12.6923 18.5938 12.6923H16.4062C15.1992 12.6923 14.2188 13.7266 14.2188 15V16.1538H2.1875V6.92308H32.8125V16.1538H20.7812Z" fill="#FFFFFF"/>
</svg>
