<svg width="37" height="38" viewBox="0 0 37 38" fill="none" xmlns="http://www.w3.org/2000/svg">
<path d="M18.5 0C28.7172 0 37 8.5066 37 19C37.0063 23.0981 35.7166 27.0876 33.3248 30.368C29.944 34.9984 24.557 38 18.5 38H18.4946C12.4648 37.9983 7.1 35.0215 3.71777 30.4249C1.29933 27.1345 -0.00615306 23.1227 2.18046e-05 19C2.18046e-05 8.5066 8.28275 0 18.5 0ZM18.5 35.1479C27.1793 35.1479 34.2405 27.8974 34.2405 18.9853C34.2405 10.0733 27.1793 2.82275 18.5 2.82275C9.82069 2.82275 2.75946 10.0732 2.75946 18.9853C2.75946 27.8973 9.82061 35.1479 18.5 35.1479ZM8.12809 12.3298C8.36392 12.3301 8.59579 12.392 8.80185 12.5098C9.00792 12.6276 9.1814 12.7973 9.30596 13.003C9.43052 13.2086 9.50205 13.4435 9.51381 13.6854C9.52558 13.9273 9.4772 14.1682 9.37322 14.3856C8.68609 15.816 8.33073 17.3903 8.33499 18.9853C8.33499 24.7405 12.8949 29.4227 18.4999 29.4227C24.1049 29.4227 28.6646 24.7404 28.6646 18.9853C28.669 17.3903 28.3136 15.816 27.6264 14.3856C27.466 14.0464 27.4428 13.6557 27.562 13.2991C27.6813 12.9424 27.9332 12.6487 28.2627 12.4822C28.5922 12.3158 28.9725 12.2902 29.3204 12.4109C29.6683 12.5317 29.9554 12.789 30.119 13.1267C30.9946 14.9484 31.4476 16.9536 31.4425 18.9853C31.4425 26.3132 25.6364 32.2749 18.4998 32.2749C11.3633 32.2749 5.55734 26.3133 5.55734 18.9853C5.55225 16.9537 6.00522 14.9484 6.88077 13.1267C6.99538 12.8874 7.173 12.6859 7.39347 12.545C7.61394 12.4042 7.86844 12.3296 8.12809 12.3298ZM18.5 23.2636C17.5172 23.2638 16.5659 22.9071 15.8144 22.2566C15.0629 21.6061 14.5596 20.7037 14.3933 19.7088C14.2271 18.714 14.4087 17.6908 14.9061 16.8202C15.4034 15.9496 16.1845 15.2876 17.1111 14.9513V7.10107C17.1111 6.72276 17.2575 6.35995 17.5179 6.09245C17.7784 5.82495 18.1316 5.67467 18.5 5.67467C18.8683 5.67467 19.2216 5.82495 19.4821 6.09245C19.7425 6.35995 19.8889 6.72276 19.8889 7.10107V14.9513C20.8155 15.2876 21.5966 15.9496 22.0939 16.8202C22.5913 17.6908 22.7729 18.714 22.6067 19.7088C22.4404 20.7037 21.9371 21.6061 21.1856 22.2566C20.4341 22.9071 19.4828 23.2638 18.5 23.2636ZM18.5 17.5593C18.2254 17.5594 17.9569 17.6431 17.7286 17.7998C17.5003 17.9565 17.3224 18.1793 17.2173 18.4399C17.1123 18.7005 17.0848 18.9872 17.1384 19.2638C17.192 19.5404 17.3243 19.7945 17.5185 19.9939C17.7127 20.1933 17.9601 20.3291 18.2295 20.3841C18.4988 20.4391 18.778 20.4109 19.0317 20.3029C19.2855 20.195 19.5023 20.0122 19.6549 19.7777C19.8074 19.5432 19.8889 19.2675 19.8889 18.9854C19.8885 18.6072 19.742 18.2447 19.4816 17.9773C19.2213 17.7099 18.8682 17.5595 18.5 17.5591V17.5593Z" fill="#FFFFFF" />
</svg>
