<svg width="33" height="39" viewBox="0 0 33 39" fill="none" xmlns="http://www.w3.org/2000/svg">
<path d="M16.0123 19.334C21.0746 19.334 25.1784 15.0059 25.1784 9.667C25.1784 4.32806 21.0746 0 16.0123 0C10.95 0 6.84619 4.32806 6.84619 9.667C6.84619 15.0059 10.95 19.334 16.0123 19.334Z" fill="#FFFFFF"/>
<path d="M25.1782 23.2009H25.8235C27.1638 23.2013 28.4577 23.7178 29.4623 24.6535C30.4669 25.5891 31.113 26.8793 31.2792 28.2819L31.996 34.3218C32.0605 34.8659 32.0145 35.4183 31.861 35.9422C31.7076 36.4662 31.4503 36.9497 31.1062 37.3607C30.762 37.7718 30.3389 38.1009 29.865 38.3263C29.391 38.5517 28.877 38.6682 28.357 38.6681H3.66724C3.1473 38.6682 2.63329 38.5517 2.15932 38.3263C1.68534 38.1009 1.26224 37.7718 0.918097 37.3607C0.573954 36.9497 0.316639 36.4662 0.16323 35.9422C0.00982064 35.4183 -0.0361748 34.8659 0.028297 34.3218L0.743253 28.2819C0.909519 26.8787 1.55613 25.5879 2.5615 24.6522C3.56687 23.7165 4.86172 23.2004 6.20258 23.2009H6.84604" fill="#FFFFFF" />
</svg>
