<svg width="34" height="38" viewBox="0 0 34 38" fill="none" xmlns="http://www.w3.org/2000/svg">
<path fill-rule="evenodd" clip-rule="evenodd" d="M0 12.6001L16.9243 0L33.8487 12.6001V38H19.5966V28.6057H14.2521V38H0V12.6001ZM23.1596 34.2423H30.2856V14.5494L16.9243 4.60321L3.56302 14.5494V34.2423H10.6891V24.848H23.1596V34.2423ZM11.5797 16.3932C11.5797 13.2872 13.9792 10.7566 16.9242 10.7566C19.8693 10.7566 22.2687 13.2813 22.2687 16.3932C22.2687 19.4991 19.8693 22.0297 16.9242 22.0297C13.9792 22.0297 11.5797 19.4991 11.5797 16.3932ZM14.252 16.3932C14.252 17.9491 15.4489 19.2114 16.9242 19.2114C18.3995 19.2114 19.5965 17.9491 19.5965 16.3932C19.5965 14.8372 18.3995 13.5749 16.9242 13.5749C15.4489 13.5749 14.252 14.8372 14.252 16.3932Z" fill="#FFFFFF"/>
</svg>
