<svg width="16" height="58" viewBox="0 0 21 69" fill="none" xmlns="http://www.w3.org/2000/svg">
<path d="M0.25688 13.8874L3.93027 11.3092V14.0701H0L0.25688 13.8874Z" fill="#37C514"/>
<path d="M0.25688 32.5097L3.93027 29.9315V32.6924H0L0.25688 32.5097Z" fill="#37C514"/>
<path d="M0.25688 50.2011L3.93027 47.6229V50.3838H0L0.25688 50.2011Z" fill="#FA7130"/>
<path d="M0.25688 67.8923L3.93027 65.3141V68.075H0L0.25688 67.8923Z" fill="#CE0015"/>
<path></path>
<path d="M4.34155 11.025L8.14338 8.50769V14.07H4.34155V11.025Z" fill="#37C514"/>
<path d="M4.34155 29.6475L8.14338 27.1302V32.6926H4.34155V29.6475Z" fill="#37C514"/>
<path d="M4.34155 47.3387L8.14338 44.8214V50.3837H4.34155V47.3387Z" fill="#FA7130"/>
<path d="M4.34155 65.0298L8.14338 62.5126V68.0749H4.34155V65.0298Z" fill="transparent" stroke="#2A588D" stroke-width="0.3"/>
<path></path>
<path d="M8.59326 8.22368L12.3951 5.70642V14.0702H8.59326V8.22368Z" fill="#37C514"/>
<path d="M8.59326 26.846L12.3951 24.3287V32.6925H8.59326V26.846Z" fill="#37C514"/>
<path d="M8.59326 44.5372L12.3951 42.0199V50.3837H8.59326V44.5372Z" fill="transparent" stroke="#2A588D" stroke-width="0.3"/>
<path d="M8.59326 62.2283L12.3951 59.7111V68.0749H8.59326V62.2283Z" fill="transparent" stroke="#2A588D" stroke-width="0.3"/>
<path></path>
<path d="M12.802 5.42217L16.6038 2.90491V14.0702H12.802V5.42217Z" fill="#37C514"/>
<path d="M12.802 24.0445L16.6038 21.5272V32.6925H12.802V24.0445Z" fill="transparent" stroke="#2A588D" stroke-width="0.3"/>
<path d="M12.802 41.7356L16.6038 39.2184V50.3837H12.802V41.7356Z" fill="transparent" stroke="#2A588D" stroke-width="0.3"/>
<path d="M12.802 59.4269L16.6038 56.9097V68.0749H12.802V59.4269Z" fill="transparent" stroke="#2A588D" stroke-width="0.3"/>
<path></path>
<path d="M17.011 2.60036L20.8128 0.103394V14.0701H17.011V2.60036Z" fill="#37C514"/>
<path d="M17.011 21.2227L20.8128 18.7257V32.6925H17.011V21.2227Z" fill="transparent" stroke="#2A588D" stroke-width="0.3"/>
<path d="M17.011 38.9138L20.8128 36.4169V50.3836H17.011V38.9138Z" fill="transparent" stroke="#2A588D" stroke-width="0.3"/>
<path d="M17.011 56.6052L20.8128 54.1083V68.075H17.011V56.6052Z" fill="transparent" stroke="#2A588D" stroke-width="0.3"/>
</svg>
