<svg width="33" height="35" viewBox="0 0 33 35" fill="none" xmlns="http://www.w3.org/2000/svg">
<path d="M19.3228 2.5L19.7644 5.75L19.9411 7.09375L21.0894 7.65625C21.5605 7.90625 22.061 8.1875 22.5027 8.5L23.5332 9.21875L24.6815 8.75L27.6847 7.5L30.4819 12.4688L28.0086 14.4688L26.9781 15.3125L27.0959 16.6875C27.1253 16.9688 27.1253 17.25 27.1253 17.5C27.1253 17.75 27.1253 18.0312 27.0959 18.3125L26.9781 19.6875L28.0086 20.5312L30.4819 22.5313L27.7142 27.5L24.6815 26.25L23.5332 25.7813L22.5027 26.5C22.0316 26.8438 21.5605 27.125 21.0894 27.3438L19.9411 27.9063L19.7644 29.2188L19.3228 32.5H13.6696L13.228 29.25L13.0513 27.9063L11.903 27.3438C11.4319 27.0938 10.9314 26.8125 10.4897 26.5L9.45921 25.7813L8.31092 26.25L5.30768 27.5L2.51055 22.5313L4.9838 20.5312L6.01432 19.6875L5.89655 18.3125C5.86711 18.0312 5.86711 17.75 5.86711 17.5C5.86711 17.25 5.86711 16.9688 5.89655 16.6875L6.01432 15.3125L4.9838 14.4688L2.51055 12.4688L5.27824 7.5L8.31092 8.75L9.45921 9.21875L10.4897 8.5C10.9608 8.15625 11.4319 7.875 11.903 7.65625L13.0513 7.09375L13.228 5.78125L13.6696 2.5H19.3228ZM19.6467 0H13.3458C12.3447 0 11.5203 0.75 11.373 1.75L10.9019 5.375C10.3131 5.65625 9.75365 6 9.16478 6.40625L5.83766 5.03125C5.60212 4.9375 5.36657 4.90625 5.13102 4.90625C4.42438 4.90625 3.74718 5.28125 3.4233 5.9375L0.272843 11.5625C-0.227697 12.4375 -0.0215921 13.5938 0.743939 14.2188L3.54107 16.4688C3.51163 16.8438 3.48218 17.1875 3.48218 17.5C3.48218 17.8125 3.48218 18.1563 3.54107 18.5313L0.743939 20.7812C-0.0215921 21.4062 -0.227697 22.5 0.272843 23.4375L3.39385 29.0312C3.74718 29.6875 4.42438 30.0938 5.13102 30.0938C5.36657 30.0938 5.57267 30.0625 5.80822 29.9688L9.13533 28.5938C9.69476 29 10.2836 29.3438 10.8725 29.625L11.373 33.2188C11.4908 34.2188 12.3447 35 13.3458 35H19.6467C20.6477 35 21.4722 34.25 21.6194 33.25L22.1199 29.625C22.7088 29.3438 23.2682 29 23.8571 28.5938L27.1842 29.9688C27.4197 30.0625 27.6553 30.0938 27.8908 30.0938C28.5975 30.0938 29.2747 29.7188 29.5986 29.0625L32.749 23.4063C33.2201 22.5 33.014 21.4062 32.2485 20.7812L29.4513 18.5313C29.4808 18.2188 29.5102 17.875 29.5102 17.5C29.5102 17.125 29.4808 16.7813 29.4513 16.4688L32.2485 14.2188C33.014 13.5938 33.2201 12.5 32.7196 11.5625L29.5986 5.96875C29.2452 5.3125 28.568 4.90625 27.8614 4.90625C27.6258 4.90625 27.4197 4.9375 27.1842 5.03125L23.8571 6.40625C23.2977 6 22.7088 5.65625 22.1199 5.375L21.6194 1.78125C21.4722 0.75 20.6477 0 19.6467 0ZM16.4962 12.5C19.0872 12.5 21.2072 14.75 21.2072 17.5C21.2072 20.25 19.0872 22.5 16.4962 22.5C13.9052 22.5 11.7852 20.25 11.7852 17.5C11.7852 14.75 13.9052 12.5 16.4962 12.5ZM16.4962 10C12.6097 10 9.42977 13.375 9.42977 17.5C9.42977 21.625 12.6097 25 16.4962 25C20.3827 25 23.5626 21.625 23.5626 17.5C23.5626 13.375 20.3827 10 16.4962 10Z" fill="#FFFFFF" />
</svg>
