<svg width="35" height="34" viewBox="0 0 35 34" fill="none" xmlns="http://www.w3.org/2000/svg">
<path fill-rule="evenodd" clip-rule="evenodd" d="M13.2981 15.546C12.5612 15.546 11.9785 16.1187 11.9785 16.8429C11.9785 17.5503 12.5612 18.1398 13.2981 18.1398H23.5801V26.1907C23.5801 30.3172 20.1699 33.6858 15.9542 33.6858H7.60868C3.4102 33.6858 0 30.3341 0 26.2076V7.49509C0 3.35174 3.42734 0 7.62582 0H15.9885C20.1699 0 23.5801 3.35174 23.5801 7.47825V15.546H13.2981ZM29.6945 11.0155L34.6126 15.9168C34.8653 16.1694 35 16.4894 35 16.8431C35 17.18 34.8653 17.5169 34.6126 17.7527L29.6945 22.6539C29.4419 22.9066 29.105 23.0413 28.785 23.0413C28.4481 23.0413 28.1113 22.9066 27.8586 22.6539C27.3533 22.1486 27.3533 21.3233 27.8586 20.8181L30.5535 18.14H23.5805V15.5462H30.5535L27.8586 12.8682C27.3533 12.3629 27.3533 11.5376 27.8586 11.0323C28.3639 10.5102 29.1892 10.5102 29.6945 11.0155Z" fill="#017FDC"/>
</svg>
