<svg width="35" height="41" viewBox="0 0 35 41" fill="none" xmlns="http://www.w3.org/2000/svg">
<path fill-rule="evenodd" clip-rule="evenodd" d="M31.0478 13.8758C31.0478 16.44 31.7255 17.9514 33.2169 19.6931C34.3471 20.9762 34.7083 22.6233 34.7083 24.4102C34.7083 26.1951 34.1219 27.8895 32.947 29.2651C31.409 30.9143 29.2398 31.9671 27.026 32.1501C23.818 32.4236 20.6079 32.6539 17.3552 32.6539C14.1005 32.6539 10.8924 32.5161 7.68433 32.1501C5.46852 31.9671 3.29937 30.9143 1.76332 29.2651C0.588449 27.8895 0 26.1951 0 24.4102C0 22.6233 0.363215 20.9762 1.49141 19.6931C3.0295 17.9514 3.66259 16.44 3.66259 13.8758V13.006C3.66259 9.57203 4.51888 7.32656 6.2822 5.12839C8.90384 1.92263 13.1062 0 17.2639 0H17.4465C21.6935 0 26.0318 2.01516 28.6088 5.35869C30.2808 7.51163 31.0478 9.6625 31.0478 13.006V13.8758ZM11.3796 36.8742C11.3796 35.8461 12.3231 35.3752 13.1957 35.1737C14.2163 34.9577 20.4356 34.9577 21.4563 35.1737C22.3288 35.3752 23.2723 35.8461 23.2723 36.8742C23.2216 37.853 22.6474 38.7208 21.854 39.2718C20.8252 40.0738 19.6179 40.5817 18.3557 40.7647C17.6577 40.8552 16.9719 40.8572 16.2982 40.7647C15.0341 40.5817 13.8267 40.0738 12.8 39.2698C12.0046 38.7208 11.4303 37.853 11.3796 36.8742Z" fill="#FFFFFF" />
</svg>
