<svg width="37" height="35" viewBox="0 0 37 35" fill="none" xmlns="http://www.w3.org/2000/svg">
<path d="M5.7477 11.3553C7.48089 9.92325 8.91871 10.9109 10.8377 13.2733C11.0531 13.5399 11.3429 13.2278 11.5083 13.0757C11.6717 12.9217 14.2037 10.4981 14.3282 10.3874C14.4508 10.2709 14.5994 10.0536 14.4043 9.81067C13.9345 9.1927 13.4743 8.56646 13.0241 7.93221C9.66548 3.26075 22.212 0.0924546 20.2857 0.0430734C19.3048 0.01542 15.3703 -0.0339611 14.7814 0.0351725C12.3981 0.301831 9.40541 2.67015 7.89886 3.77431C5.9279 5.20834 5.19227 6.0498 5.07152 6.16634C4.51423 6.68385 4.98235 7.87887 3.97179 8.82107C2.90365 9.81462 2.23675 9.06205 1.61815 9.63882C1.31164 9.9272 0.453409 10.6106 0.2082 10.8378C-0.0388675 11.0689 -0.083451 11.458 0.169189 11.7681C0.169189 11.7681 2.51726 14.5256 2.71417 14.7705C2.90922 15.0115 3.44051 15.2209 3.76745 14.9107C4.09626 14.6026 4.94149 13.8184 5.08267 13.6802C5.22756 13.5498 4.98978 11.9795 5.7477 11.3553ZM16.3512 12.3765C16.1282 12.102 15.8514 12.094 15.6137 12.3192L12.9498 14.7922C12.847 14.8915 12.7843 15.0292 12.7749 15.1765C12.7656 15.3239 12.8103 15.4693 12.8996 15.5823L28.307 34.2267C28.6674 34.6672 29.2915 34.7126 29.7021 34.3314L31.504 32.7255C31.7023 32.5398 31.8237 32.2783 31.8418 31.998C31.8599 31.7176 31.7732 31.441 31.6006 31.2283L16.3512 12.3765ZM36.8949 4.44195C36.7574 3.46618 36.2819 3.66963 36.0348 4.08245C35.7877 4.49923 34.6954 6.25917 34.2459 7.05717C33.8 7.84727 32.7003 9.40969 30.6532 7.86702C28.5206 6.2651 29.2618 5.14711 29.6333 4.39454C30.0067 3.63802 31.1529 1.51661 31.3182 1.2539C31.4836 0.987241 31.2904 0.212945 30.629 0.536885C29.9659 0.860825 25.9422 2.56151 25.3849 5.00094C24.8146 7.48185 25.8623 9.70005 23.8059 11.9025L21.3111 14.6678L23.817 17.761L26.8896 14.6599C27.6215 13.8777 29.1856 13.1172 30.6012 13.4609C33.6347 14.1898 35.2899 12.979 36.2874 10.9761C37.1828 9.18649 37.0342 5.41772 36.8949 4.44195ZM5.01208 31.4297C4.82626 31.6288 4.72199 31.8979 4.72199 32.1783C4.72199 32.4588 4.82626 32.7279 5.01208 32.927L6.7787 34.7639C7.16509 35.1768 7.77811 35.003 8.1645 34.5901L17.28 25.0615L14.4879 21.676L5.01208 31.4297Z" fill="#FFFFFF" />
</svg>
