<svg width="27" height="31" viewBox="0 0 27 31" fill="none" xmlns="http://www.w3.org/2000/svg">
<path fill-rule="evenodd" clip-rule="evenodd" d="M27 3.38718C27 2.03415 25.8558 0.936035 24.4459 0.936035H16.4188C16.1284 0.936035 15.85 1.04671 15.6448 1.24372C15.4395 1.44072 15.3241 1.70792 15.3241 1.98653C15.3241 2.26513 15.4395 2.53233 15.6448 2.72933C15.85 2.92634 16.1284 3.03702 16.4188 3.03702H24.4459C24.5427 3.03702 24.6355 3.07391 24.7039 3.13958C24.7723 3.20524 24.8108 3.29431 24.8108 3.38718V27.8986C24.8108 28.0919 24.6473 28.2488 24.4459 28.2488H16.4188C16.1284 28.2488 15.85 28.3595 15.6448 28.5565C15.4395 28.7535 15.3241 29.0207 15.3241 29.2993C15.3241 29.5779 15.4395 29.8451 15.6448 30.0421C15.85 30.2391 16.1284 30.3498 16.4188 30.3498H24.4459C25.1233 30.3498 25.7729 30.0915 26.2519 29.6318C26.7309 29.1722 27 28.5487 27 27.8986V3.38718ZM3.63954 16.6934L8.45583 21.5733C8.64765 21.7767 8.74895 22.044 8.73806 22.3182C8.72717 22.5923 8.60495 22.8515 8.39754 23.0403C8.19013 23.2291 7.91398 23.3326 7.62814 23.3285C7.3423 23.3245 7.06944 23.2133 6.86791 23.0187L0.300241 16.3656C0.107458 16.1705 0 15.9118 0 15.6429C0 15.374 0.107458 15.1153 0.300241 14.9202L6.86791 8.26706C7.06944 8.07248 7.3423 7.96129 7.62814 7.95725C7.91398 7.95322 8.19013 8.05666 8.39754 8.24546C8.60495 8.43427 8.72717 8.69345 8.73806 8.9676C8.74895 9.24176 8.64765 9.50912 8.45583 9.71253L3.63954 14.5924H15.689C15.9793 14.5924 16.2577 14.7031 16.463 14.9001C16.6683 15.0971 16.7836 15.3643 16.7836 15.6429C16.7836 15.9215 16.6683 16.1887 16.463 16.3857C16.2577 16.5827 15.9793 16.6934 15.689 16.6934H3.63954Z" fill="#D9D9D9"/>
</svg>
